# xmcd
#
# Track frame offsets:
# 150
# 13864
# 26649
# 39252
# 49853
# 60460
# 71631
# 83345
# 96132
# 109382
# 120189
# 129857
# 141251
# 154285
# 165910
# 177069
# 186097
# 195677
# 205737
# 216269
# 227281
# 236042
# 246582
# 258977
#
# Disc length: 3572 seconds
#
#
# Revision: 0
# Processed by: cddbd v1.5PL3 Copyright (c) Steve Scherf et al.
# Submitted via: FreeRIP 2.53 
#
DISCID=400df218
DTITLE=Pierce, Webb - The Wondering Boy
DYEAR=1900
DGENRE=
TTITLE0=Wondering
TTITLE1=That Heart Belongs To Me
TTITLE2=Back Street Affair
TTITLE3=It's Been So Long
TTITLE4=There Stands The Glass
TTITLE5=I'm Walking The Dog
TTITLE6=Slowly
TTITLE7=Even Tho
TTITLE8=Sparkling Brown Eyes
TTITLE9=More And More
TTITLE10=In The Jailhouse Now
TTITLE11=I Don't Care
TTITLE12=Love, Love, Love
TTITLE13=Why Baby Why
TTITLE14=Yes I Know Why
TTITLE15=I'm Tired
TTITLE16=Honky Tonk Song
TTITLE17=Bye Bye Love
TTITLE18=Holiday For Love
TTITLE19=Crying Over You
TTITLE20=I Ain't Never
TTITLE21=Teenage Boogie
TTITLE22=I'll Go On Alone
TTITLE23=The New Raunchy
EXTD=
EXTT0=
EXTT1=
EXTT2=
EXTT3=
EXTT4=
EXTT5=
EXTT6=
EXTT7=
EXTT8=
EXTT9=
EXTT10=
EXTT11=
EXTT12=
EXTT13=
EXTT14=
EXTT15=
EXTT16=
EXTT17=
EXTT18=
EXTT19=
EXTT20=
EXTT21=
EXTT22=
EXTT23=
PLAYORDER=
